<?xml version="1.0" encoding="iso-8859-1"?>
<!-- Generator: Adobe Illustrator 17.1.0, SVG Export Plug-In . SVG Version: 6.00 Build 0)  -->
<!DOCTYPE svg PUBLIC "-//W3C//DTD SVG 1.1//EN" "http://www.w3.org/Graphics/SVG/1.1/DTD/svg11.dtd">
<svg version="1.1" id="Capa_1" xmlns="http://www.w3.org/2000/svg" xmlns:xlink="http://www.w3.org/1999/xlink" x="0px" y="0px"
	 viewBox="0 0 357.984 357.984" style="enable-background:new 0 0 357.984 357.984;" xml:space="preserve">
<g>
	<path d="M190.074,312.996H167.91c-1.626,0-3,1.374-3,3v15c0,1.626,1.374,3,3,3h22.163c1.626,0,3-1.374,3-3v-15
		C193.074,314.37,191.699,312.996,190.074,312.996z"/>
	<path d="M274.736,0H83.248c-11.028,0-20,8.972-20,20v317.984c0,11.028,8.972,20,20,20h191.488c11.028,0,20-8.972,20-20V20
		C294.736,8.972,285.764,0,274.736,0z M162.825,16.281h32.333c2.761,0,5,2.239,5,5s-2.239,5-5,5h-32.333c-2.761,0-5-2.239-5-5
		S160.064,16.281,162.825,16.281z M203.074,330.996c0,7.168-5.832,13-13,13H167.91c-7.168,0-13-5.832-13-13v-15
		c0-7.168,5.832-13,13-13h22.163c7.168,0,13,5.832,13,13V330.996z M270.995,286.281c0,2.75-2.25,5-5,5H91.988c-2.75,0-5-2.25-5-5
		v-241c0-2.75,2.25-5,5-5h174.007c2.75,0,5,2.25,5,5V286.281z"/>
	<path d="M126.813,132.818l50.801,37.783c0.44,0.355,1.052,0.408,1.378,0.408h0.001c0.325,0,0.936-0.053,1.345-0.383l49.742-36.926
		c0.476-0.382,1.988-1.736,1.503-3.114c-0.45-1.276-2.113-1.424-3.325-1.424h-99.25c-1.363,0-2.975,0.153-3.35,1.343
		C125.298,131.651,126.469,132.579,126.813,132.818z"/>
	<path d="M236.131,138.746c-1.179,0-2.277,0.927-2.574,1.199l-48.162,36.881c-1.729,1.396-4.003,2.165-6.403,2.165
		c-2.399,0-4.673-0.769-6.423-2.181l-49.449-37.919c-0.127-0.103-0.802-0.615-1.61-0.615c-0.761,0-2.037,0.408-2.037,3.142v74.796
		c0,3.309,2.691,6,6,6H232.51c3.309,0,6-2.691,6-6v-73.629C238.51,139.244,237.019,138.746,236.131,138.746z"/>
</g>
<g>
</g>
<g>
</g>
<g>
</g>
<g>
</g>
<g>
</g>
<g>
</g>
<g>
</g>
<g>
</g>
<g>
</g>
<g>
</g>
<g>
</g>
<g>
</g>
<g>
</g>
<g>
</g>
<g>
</g>
</svg>
